<svg width="151" height="100" viewBox="0 0 151 100" fill="none" xmlns="http://www.w3.org/2000/svg">
<path d="M22.7796 46.381C21.632 45.2954 20.0141 44.7727 18.509 44.7727C17.7189 44.7727 15.8188 44.8732 15.8188 46.1196C15.8188 48.894 25.3381 47.0846 25.3381 53.357C25.3381 57.3577 21.632 58.3428 18.6596 58.3428C16.101 58.3428 13.1474 57.5788 11.5859 55.2267L14.2009 52.6333C15.198 54.3019 17.0605 54.905 18.8477 54.905C19.9388 54.905 21.7637 54.8447 21.7637 53.4173C21.7637 50.7033 12.1691 52.1709 12.1691 46.4413C12.1691 42.6015 15.7248 41.3751 18.5467 41.3751C20.6913 41.3751 23.0617 41.7571 24.8113 43.2448L22.7796 46.381Z" fill="#F9FFFE"/>
<path d="M28.7988 57.9421V41.6378H32.4109V57.9421H28.7988Z" fill="#F9FFFE"/>
<path d="M52.2596 55.4478C51.0744 57.036 48.5159 58.3227 45.2801 58.3227C40.1253 58.3227 36.043 55.2468 36.043 49.8188C36.043 44.9335 39.3352 41.3751 45.6939 41.3751C48.9862 41.3751 51.4695 42.6618 52.3537 43.9886L50.0773 46.9439C49.0426 45.5768 47.5 44.9335 45.2801 44.9335C41.8185 44.9335 39.7679 46.8635 39.7679 49.7986C39.7679 52.6936 41.8938 54.6437 45.2801 54.6437C47.3495 54.6437 48.9862 54.1411 49.9833 52.6735L52.2596 55.4478Z" fill="#F9FFFE"/>
<path d="M74.8536 58.947L66.1621 41.6376H70.3574L74.8536 52.0112L79.2558 41.6376H83.2441L74.8536 58.947Z" fill="#F9FFFE"/>
<path d="M93.1396 58.324C87.9849 58.324 83.959 55.0672 83.959 50.001C83.959 44.9348 87.6275 41.3563 93.1396 41.3563C98.5201 41.3563 102.396 44.9348 102.396 50.001C102.396 55.0873 98.5201 58.324 93.1396 58.324ZM93.1396 44.9951C90.0355 44.9951 87.6463 46.8849 87.6463 50.001C87.6463 53.1171 90.0731 54.7455 93.1396 54.7455C96.2814 54.7455 98.633 53.1171 98.633 50.001C98.6142 46.8849 96.319 44.9951 93.1396 44.9951Z" fill="#F9FFFE"/>
<path d="M105.932 57.9418V41.6376H109.544V54.3432H118.48V57.9418H105.932Z" fill="#F9FFFE"/>
<path d="M129.655 58.324C124.501 58.324 120.475 55.0672 120.475 50.001C120.475 44.9348 124.143 41.3563 129.655 41.3563C135.036 41.3563 138.911 44.9348 138.911 50.001C138.911 55.0873 135.036 58.324 129.655 58.324ZM129.655 44.9951C126.551 44.9951 124.162 46.8849 124.162 50.001C124.162 53.1171 126.589 54.7455 129.655 54.7455C132.797 54.7455 135.149 53.1171 135.149 50.001C135.149 46.8849 132.853 44.9951 129.655 44.9951Z" fill="#F9FFFE"/>
<path d="M75.2512 0.505127C33.6937 0.505127 0 19.8853 0 43.7888C0 45.9399 0.282193 48.0508 0.808951 50.1215C0.282193 52.1922 0 54.3031 0 56.4542C0 80.3577 33.6937 99.7379 75.2512 99.7379C116.809 99.7379 150.502 80.3577 150.502 56.4542C150.502 54.3031 150.22 52.1922 149.694 50.1215C150.22 48.0508 150.502 45.9399 150.502 43.7888C150.502 19.8853 116.809 0.505127 75.2512 0.505127ZM8.86083 29.3944C10.5728 27.0825 12.6986 24.8107 15.1819 22.6998C17.7029 20.5487 20.6 18.5383 23.817 16.6888C30.4391 12.8891 38.1712 9.89364 46.7875 7.78273C55.7988 5.61151 65.3745 4.4857 75.2512 4.4857C85.128 4.4857 94.7037 5.59141 103.715 7.78273C112.35 9.87353 120.082 12.869 126.685 16.6888C129.902 18.5383 132.8 20.5487 135.321 22.6998C137.804 24.8308 139.948 27.0825 141.642 29.3944C144.84 33.7368 146.552 38.2803 146.74 42.9243C136.863 25.6551 108.588 13.1706 75.2512 13.1706C41.9149 13.1706 13.6393 25.635 3.76256 42.9243C3.95069 38.3004 5.66266 33.7569 8.86083 29.3944ZM145.799 50.1215C144.953 52.8556 143.579 55.5495 141.642 58.1631C139.93 60.475 137.804 62.7467 135.321 64.8576C132.8 67.0088 129.902 69.0191 126.685 70.8687C120.063 74.6683 112.331 77.6638 103.715 79.7747C94.7037 81.966 85.128 83.0718 75.2512 83.0718C65.3745 83.0718 55.7988 81.966 46.7875 79.7747C38.1524 77.6839 30.4203 74.6884 23.817 70.8687C20.6 69.0191 17.7029 67.0088 15.1819 64.8576C12.6986 62.7266 10.554 60.475 8.86083 58.1631C6.94193 55.5495 5.54978 52.8556 4.7032 50.1215C5.54978 47.3874 6.92311 44.6935 8.86083 42.0799C10.5728 39.768 12.6986 37.4963 15.1819 35.3854C17.7029 33.2342 20.6 31.2239 23.817 29.3743C30.4391 25.5747 38.1712 22.5792 46.7875 20.4683C55.7988 18.277 65.3745 17.1712 75.2512 17.1712C85.128 17.1712 94.7037 18.277 103.715 20.4683C112.35 22.5591 120.082 25.5546 126.685 29.3743C129.902 31.2239 132.8 33.2342 135.321 35.3854C137.804 37.5164 139.948 39.768 141.642 42.0799C143.579 44.6935 144.953 47.3874 145.799 50.1215ZM141.642 70.8486C139.93 73.1605 137.804 75.4323 135.321 77.5432C132.8 79.6943 129.902 81.7047 126.685 83.5542C120.063 87.3539 112.331 90.3494 103.715 92.4603C94.7037 94.6315 85.128 95.7573 75.2512 95.7573C65.3745 95.7573 55.7988 94.6516 46.7875 92.4603C38.1524 90.3695 30.4203 87.374 23.817 83.5542C20.6 81.7047 17.7029 79.6943 15.1819 77.5432C12.6986 75.4122 10.554 73.1605 8.86083 70.8486C5.66266 66.5062 3.95069 61.9627 3.76256 57.3187C13.6393 74.5879 41.9149 87.0724 75.2512 87.0724C108.588 87.0724 136.863 74.608 146.74 57.3187C146.552 61.9426 144.84 66.4861 141.642 70.8486Z" fill="#F9FFFE"/>
</svg>
