<svg width="49" height="49" viewBox="0 0 49 49" fill="none" xmlns="http://www.w3.org/2000/svg">
<path d="M24.5 0.57959C10.9693 0.57959 0 9.95225 0 21.5137C0 22.5551 0.089425 23.579 0.261537 24.5796C0.089425 25.5802 0 26.6041 0 27.6455C0 39.2069 10.9693 48.5796 24.5 48.5796C38.0307 48.5796 49 39.2069 49 27.6455C49 26.6041 48.9106 25.5802 48.7385 24.5796C48.9106 23.579 49 22.5551 49 21.5137C49 9.95225 38.0307 0.57959 24.5 0.57959ZM2.88243 14.5593C3.43858 13.4362 4.13131 12.3462 4.94287 11.3204C5.7624 10.2838 6.7081 9.30465 7.75303 8.41202C9.90658 6.5723 12.4233 5.12347 15.2341 4.10832C18.1661 3.04843 21.2838 2.51169 24.5006 2.51169C27.7175 2.51169 30.8351 3.04941 33.7671 4.10832C36.5779 5.12444 39.0947 6.5723 41.2482 8.41202C42.2931 9.30465 43.2388 10.2829 44.0583 11.3204C44.8693 12.3462 45.5627 13.4362 46.1188 14.5593C47.1594 16.6616 47.7168 18.8601 47.7781 21.0985C44.5612 12.7439 35.3553 6.71232 24.5006 6.71232C13.6459 6.71232 4.44001 12.7439 1.22255 21.0985C1.2838 18.8591 1.84117 16.6616 2.88181 14.5593H2.88243ZM47.4694 24.5806C47.1962 25.904 46.7448 27.204 46.1182 28.4691C45.562 29.5921 44.8693 30.6822 44.0577 31.708C43.2382 32.7446 42.2925 33.7237 41.2476 34.6164C39.094 36.4561 36.5773 37.9049 33.7665 38.9201C30.8345 39.98 27.7169 40.5167 24.5 40.5167C21.2831 40.5167 18.1655 39.979 15.2335 38.9201C12.4227 37.904 9.90596 36.4561 7.75241 34.6164C6.70749 33.7237 5.76179 32.7455 4.94226 31.708C4.1307 30.6822 3.43796 29.5921 2.88181 28.4691C2.25522 27.204 1.80443 25.903 1.53064 24.5806C1.80381 23.2581 2.25522 21.9571 2.88181 20.6921C3.43796 19.569 4.1307 18.4789 4.94226 17.4531C5.76179 16.4166 6.70749 15.4374 7.75241 14.5447C9.90596 12.705 12.4227 11.2562 15.2335 10.241C18.1655 9.18116 21.2831 8.64441 24.5 8.64441C27.7169 8.64441 30.8345 9.18213 33.7665 10.241C36.5773 11.2572 39.094 12.705 41.2476 14.5447C42.2925 15.4374 43.2382 16.4156 44.0577 17.4531C44.8687 18.4789 45.562 19.569 46.1182 20.6921C46.7448 21.9571 47.1956 23.2581 47.4694 24.5806ZM46.1182 34.6018C45.562 35.7249 44.8693 36.8149 44.0577 37.8408C43.2382 38.8773 42.2925 39.8565 41.2476 40.7491C39.094 42.5888 36.5773 44.0377 33.7665 45.0528C30.8345 46.1127 27.7169 46.6494 24.5 46.6494C21.2831 46.6494 18.1655 46.1117 15.2335 45.0528C12.4227 44.0367 9.90596 42.5888 7.75241 40.7491C6.70749 39.8565 5.76179 38.8783 4.94226 37.8408C4.1307 36.8149 3.43796 35.7249 2.88181 34.6018C1.84117 32.4995 1.2838 30.301 1.22255 28.0626C4.4394 36.4172 13.6453 42.4488 24.5 42.4488C35.3547 42.4488 44.56 36.4172 47.7775 28.0626C47.7162 30.302 47.1588 32.4995 46.1182 34.6018Z" fill="#004E41"/>
</svg>
