<svg width="24" height="24" viewBox="0 0 24 24" fill="none" xmlns="http://www.w3.org/2000/svg">
<path d="M12 9.75C10.764 9.75 9.75 8.736 9.75 7.5H8.25C8.25 9.564 9.936 11.25 12 11.25C14.064 11.25 15.75 9.564 15.75 7.5H14.25C14.25 8.736 13.236 9.75 12 9.75Z" fill="#F9FFFE"/>
<path d="M6.44988 3.75C5.32113 3.75 4.31763 4.63575 4.20363 5.775L3.00288 17.7877C2.89263 19.1137 3.90063 20.25 5.25063 20.25H18.4506C19.8006 20.25 20.8086 19.1137 20.6984 17.7877L20.6969 17.775L19.4969 5.775C19.3829 4.635 18.3794 3.75 17.2506 3.75H6.44988ZM5.69613 5.92425C5.73213 5.56425 6.07863 5.25 6.44988 5.25H17.2499C17.6211 5.25 17.9676 5.56425 18.0036 5.92425L19.2029 17.9175C19.2396 18.3885 18.8984 18.75 18.4499 18.75H5.24988C4.80138 18.75 4.46013 18.3885 4.49688 17.9175L5.69613 5.92425Z" fill="#F9FFFE"/>
</svg>
