<svg width="48" height="49" viewBox="0 0 48 49" fill="none" xmlns="http://www.w3.org/2000/svg">
<path d="M33.5471 16.7346L16.5765 33.7051C15.9967 34.285 15.035 34.285 14.4552 33.7051C13.8754 33.1253 13.8754 32.1636 14.4552 31.5838L31.4258 14.6132C32.0056 14.0334 32.9672 14.0334 33.5471 14.6132C34.1269 15.1931 34.1269 16.1547 33.5471 16.7346Z" fill="#F9FFFE"/>
<path d="M33.5471 33.7051C32.9672 34.2849 32.0056 34.2849 31.4258 33.7051L14.4552 16.7345C13.8754 16.1547 13.8754 15.1931 14.4552 14.6132C15.035 14.0334 15.9967 14.0334 16.5765 14.6132L33.5471 31.5838C34.1269 32.1636 34.1269 33.1253 33.5471 33.7051Z" fill="#F9FFFE"/>
</svg>
