<svg width="32" height="32" viewBox="0 0 32 32" fill="none" xmlns="http://www.w3.org/2000/svg">
<path d="M22.3637 11.0503L11.05 22.364C10.6635 22.7505 10.0224 22.7505 9.63582 22.364C9.24927 21.9774 9.24927 21.3363 9.63582 20.9498L20.9495 9.63605C21.3361 9.24949 21.9772 9.24949 22.3637 9.63605C22.7503 10.0226 22.7503 10.6637 22.3637 11.0503Z" fill="#006756"/>
<path d="M22.3637 22.364C21.9772 22.7505 21.3361 22.7505 20.9495 22.364L9.63582 11.0502C9.24927 10.6637 9.24927 10.0226 9.63582 9.63603C10.0224 9.24948 10.6635 9.24948 11.05 9.63603L22.3637 20.9497C22.7503 21.3363 22.7503 21.9774 22.3637 22.364Z" fill="#006756"/>
</svg>
