<svg width="48" height="48" viewBox="0 0 48 48" fill="none" xmlns="http://www.w3.org/2000/svg">
<path d="M33.5432 16.5754L16.5726 33.546C15.9928 34.1258 15.0311 34.1258 14.4513 33.546C13.8715 32.9661 13.8715 32.0045 14.4513 31.4246L31.4218 14.4541C32.0017 13.8742 32.9633 13.8742 33.5432 14.4541C34.123 15.0339 34.123 15.9956 33.5432 16.5754Z" fill="#F9FFFE"/>
<path d="M33.5432 33.5459C32.9633 34.1258 32.0017 34.1258 31.4218 33.5459L14.4513 16.5754C13.8715 15.9955 13.8715 15.0339 14.4513 14.454C15.0311 13.8742 15.9928 13.8742 16.5726 14.454L33.5432 31.4246C34.123 32.0044 34.123 32.9661 33.5432 33.5459Z" fill="#F9FFFE"/>
</svg>
