<svg width="24" height="25" viewBox="0 0 24 25" fill="none" xmlns="http://www.w3.org/2000/svg">
<path d="M5 9.65918L6.087 17.6952C6.31 19.3452 6.422 20.1712 6.987 20.6652C7.553 21.1592 8.385 21.1592 10.051 21.1592H13.949C15.615 21.1592 16.448 21.1592 17.013 20.6652C17.578 20.1712 17.69 19.3452 17.913 17.6952L19 9.65918M9 6.15918C9 5.22718 9 4.76118 9.152 4.39418C9.25251 4.15136 9.3999 3.93073 9.58572 3.7449C9.77155 3.55908 9.99218 3.41169 10.235 3.31118C10.602 3.15918 11.068 3.15918 12 3.15918C12.932 3.15918 13.398 3.15918 13.765 3.31118C14.0078 3.41169 14.2284 3.55908 14.4143 3.7449C14.6001 3.93073 14.7475 4.15136 14.848 4.39418C15 4.76118 15 5.22718 15 6.15918M19 6.15918H5" stroke="#F9FFFE" stroke-width="1.5" stroke-linecap="round" stroke-linejoin="round"/>
</svg>
