<svg width="63" height="24" viewBox="0 0 63 24" fill="none" xmlns="http://www.w3.org/2000/svg">
<path d="M15.404 18.6387C15.404 19.8361 14.4376 20.8025 13.2402 20.8025H3.38721C2.18973 20.8235 1.20234 19.8361 1.20234 18.6387V8.80673C1.20234 7.60925 2.16872 6.64286 3.3662 6.64286H8.57629L9.73175 5.4874H3.38721C1.53847 5.46639 0.046875 6.95799 0.046875 8.80673V18.6597C0.046875 20.4874 1.53847 22 3.38721 22H13.2402C15.0889 22 16.5805 20.5084 16.5805 18.6597V12.2731L15.425 13.4286V18.6387H15.404Z" fill="#C3C3C3"/>
<path d="M19.313 4.52101L17.4853 2.69328C16.5609 1.76891 15.0693 1.76891 14.145 2.69328L5.32143 11.5168C5.13235 11.7059 5.0063 11.958 4.98529 12.2311L4.62815 16.3697C4.60714 16.6429 4.69118 16.895 4.88025 17.084C5.04832 17.2521 5.27941 17.3571 5.53151 17.3571C5.55252 17.3571 5.57353 17.3571 5.61555 17.3571L9.7542 17C10.0273 16.979 10.2794 16.8529 10.4685 16.6639L19.292 7.84034C20.2374 6.93698 20.2374 5.44538 19.313 4.52101ZM9.67017 15.8655L5.84664 16.1807L6.16177 12.3571L13.3466 5.17227L16.855 8.68067L9.67017 15.8655ZM18.4937 7.04202L17.6744 7.86134L14.166 4.35294L14.9853 3.53361C15.4475 3.07143 16.2038 3.07143 16.666 3.53361L18.4937 5.36134C18.9559 5.82353 18.9559 6.57983 18.4937 7.04202Z" fill="#C3C3C3"/>
<path d="M34.112 13.368C34.288 15.112 35.568 16.12 37.024 16.12C38.16 16.12 38.96 15.656 39.632 14.952L40.4 15.64C39.568 16.568 38.56 17.192 36.992 17.192C34.72 17.192 32.864 15.448 32.864 12.872C32.864 10.472 34.544 8.552 36.832 8.552C39.28 8.552 40.688 10.504 40.688 12.936C40.688 13.048 40.688 13.176 40.672 13.368H34.112ZM34.112 12.376H39.44C39.296 10.872 38.432 9.592 36.8 9.592C35.376 9.592 34.288 10.776 34.112 12.376ZM46.3168 17.176C44.3328 17.176 42.3648 15.608 42.3648 12.856C42.3648 10.152 44.3328 8.552 46.3168 8.552C47.8528 8.552 48.8448 9.384 49.4848 10.312V5.32H50.7168V17H49.4848V15.336C48.8128 16.328 47.8368 17.176 46.3168 17.176ZM46.5408 16.072C48.0768 16.072 49.5328 14.776 49.5328 12.84C49.5328 10.936 48.0768 9.656 46.5408 9.656C44.9408 9.656 43.6288 10.84 43.6288 12.872C43.6288 14.824 44.9728 16.072 46.5408 16.072ZM53.5018 6.92V5.56H54.9098V6.92H53.5018ZM53.5818 17V8.728H54.8138V17H53.5818ZM60.4409 17.144C59.1129 17.144 58.1049 16.488 58.1049 14.808V9.816H56.9529V8.728H58.1049V6.232H59.3369V8.728H61.9609V9.816H59.3369V14.648C59.3369 15.656 59.8969 16.024 60.7289 16.024C61.1449 16.024 61.4969 15.944 61.9289 15.736V16.792C61.4969 17.016 61.0329 17.144 60.4409 17.144Z" fill="#C3C3C3"/>
</svg>
