<svg width="20" height="21" viewBox="0 0 20 21" fill="none" xmlns="http://www.w3.org/2000/svg">
<path d="M15.3571 17.2183C15.3571 18.4157 14.3908 19.3821 13.1933 19.3821H3.34034C2.14286 19.4031 1.15546 18.4157 1.15546 17.2183V7.38632C1.15546 6.18884 2.12185 5.22245 3.31933 5.22245H8.52941L9.68487 4.06699H3.34034C1.4916 4.04598 0 5.53758 0 7.38632V17.2393C0 19.067 1.4916 20.5796 3.34034 20.5796H13.1933C15.042 20.5796 16.5336 19.088 16.5336 17.2393V10.8527L15.3782 12.0082V17.2183H15.3571Z" fill="#C3C3C3"/>
<path d="M19.2662 3.1006L17.4384 1.27287C16.5141 0.348497 15.0225 0.348497 14.0981 1.27287L5.27455 10.0964C5.08548 10.2855 4.95943 10.5376 4.93842 10.8107L4.58128 14.9493C4.56027 15.2224 4.6443 15.4745 4.83338 15.6636C5.00144 15.8317 5.23254 15.9367 5.48464 15.9367C5.50565 15.9367 5.52665 15.9367 5.56867 15.9367L9.70733 15.5796C9.98044 15.5586 10.2325 15.4325 10.4216 15.2435L19.2451 6.41993C20.1905 5.51657 20.1905 4.02497 19.2662 3.1006ZM9.62329 14.4451L5.79976 14.7603L6.11489 10.9367L13.2998 3.75186L16.8082 7.26026L9.62329 14.4451ZM18.4468 5.62161L17.6275 6.44093L14.1191 2.93253L14.9384 2.1132C15.4006 1.65102 16.1569 1.65102 16.6191 2.1132L18.4468 3.94093C18.909 4.40312 18.909 5.15942 18.4468 5.62161Z" fill="#C3C3C3"/>
</svg>
