<svg width="24" height="25" viewBox="0 0 24 25" fill="none" xmlns="http://www.w3.org/2000/svg">
<path d="M12 9.90918C10.764 9.90918 9.75 8.89518 9.75 7.65918H8.25C8.25 9.72318 9.936 11.4092 12 11.4092C14.064 11.4092 15.75 9.72318 15.75 7.65918H14.25C14.25 8.89518 13.236 9.90918 12 9.90918Z" fill="#F9FFFE"/>
<path d="M6.45134 3.90918C5.32259 3.90918 4.31909 4.79493 4.20509 5.93418L3.00434 17.9469C2.89409 19.2729 3.90209 20.4092 5.25209 20.4092H18.4521C19.8021 20.4092 20.8101 19.2729 20.6998 17.9469L20.6983 17.9342L19.4983 5.93418C19.3843 4.79418 18.3808 3.90918 17.2521 3.90918H6.45134ZM5.69759 6.08343C5.73359 5.72343 6.08009 5.40918 6.45134 5.40918H17.2513C17.6226 5.40918 17.9691 5.72343 18.0051 6.08343L19.2043 18.0767C19.2411 18.5477 18.8998 18.9092 18.4513 18.9092H5.25134C4.80284 18.9092 4.46159 18.5477 4.49834 18.0767L5.69759 6.08343Z" fill="#F9FFFE"/>
</svg>
