<svg width="1142" height="546" viewBox="0 0 1142 546" fill="none" xmlns="http://www.w3.org/2000/svg">
<path d="M1013.28 238.05C1013.28 106.577 815.261 0 571.001 0C326.741 0 128.718 106.577 128.718 238.05C128.718 249.898 130.331 261.533 133.443 272.924C130.345 284.301 128.718 295.95 128.718 307.798C128.718 439.271 326.727 545.848 571.001 545.848C815.275 545.848 1013.28 439.271 1013.28 307.798C1013.28 295.95 1011.67 284.316 1008.56 272.924C1011.66 261.547 1013.28 249.898 1013.28 238.05ZM180.75 158.967C190.786 146.19 203.305 133.8 217.951 122.137C232.754 110.346 249.813 99.2256 268.684 89.0618C307.555 68.1347 352.993 51.6756 403.726 40.1271C456.658 28.079 512.93 21.9693 571.001 21.9693C629.072 21.9693 685.344 28.079 738.275 40.1271C789.009 51.6756 834.446 68.1489 873.317 89.0618C892.174 99.2114 909.247 110.346 924.05 122.137C938.697 133.8 951.216 146.19 961.251 158.967C980.037 182.877 990.101 207.873 991.2 233.325C933.129 138.325 766.94 69.7335 571.001 69.7335C375.062 69.7335 208.872 138.325 150.801 233.325C151.915 207.859 161.964 182.863 180.75 158.967ZM985.633 272.924C980.694 287.97 972.557 302.745 961.237 317.148C951.202 329.924 938.682 342.315 924.036 353.978C909.233 365.769 892.174 376.889 873.303 387.053C834.432 407.98 788.995 424.439 738.261 435.988C685.329 448.036 629.057 454.145 570.986 454.145C512.916 454.145 456.644 448.036 403.712 435.988C352.978 424.439 307.541 407.966 268.67 387.053C249.813 376.903 232.74 365.769 217.937 353.978C203.29 342.315 190.771 329.924 180.736 317.148C169.43 302.759 161.279 287.97 156.34 272.924C161.279 257.878 169.416 243.104 180.736 228.7C190.771 215.924 203.29 203.533 217.937 191.871C232.74 180.079 249.799 168.959 268.67 158.795C307.541 137.868 352.978 121.409 403.712 109.861C456.644 97.8124 512.916 91.7027 570.986 91.7027C629.057 91.7027 685.329 97.8124 738.261 109.861C788.995 121.409 834.432 137.882 873.303 158.795C892.16 168.945 909.233 180.079 924.036 191.871C938.682 203.533 951.202 215.924 961.237 228.7C972.543 243.089 980.694 257.878 985.633 272.924ZM961.237 386.882C951.202 399.658 938.682 412.048 924.036 423.711C909.233 435.502 892.174 446.622 873.303 456.786C834.432 477.713 788.995 494.173 738.261 505.721C685.329 517.769 629.057 523.879 570.986 523.879C512.916 523.879 456.644 517.769 403.712 505.721C352.978 494.173 307.541 477.699 268.67 456.786C249.813 446.637 232.74 435.502 217.937 423.711C203.29 412.048 190.771 399.658 180.736 386.882C161.95 362.971 151.886 337.975 150.787 312.523C208.858 407.523 375.048 476.115 570.986 476.115C766.925 476.115 933.115 407.523 991.186 312.523C990.072 337.99 980.023 362.985 961.237 386.882Z" fill="#004E41"/>
<path d="M65.7936 252.397C59.0415 246.388 49.5343 243.518 40.6553 243.518C36.0301 243.518 24.8956 244.018 24.8956 250.898C24.8956 266.158 80.8109 256.152 80.8109 290.683C80.8109 312.695 59.0415 318.077 41.526 318.077C26.5087 318.077 9.12174 313.823 0 300.932L15.3885 286.672C21.2698 295.808 32.1473 299.177 42.6538 299.177C49.0347 299.177 59.7981 298.805 59.7981 291.04C59.7981 276.151 3.38318 284.159 3.38318 252.64C3.38318 231.499 24.2675 224.747 40.9122 224.747C53.5456 224.747 67.4352 226.874 77.6847 235.01L65.7936 252.397Z" fill="#004E41"/>
<path d="M1092.77 321.488L1041.66 226.26H1066.3L1092.75 283.303L1118.59 226.26H1141.99L1092.75 321.488H1092.77Z" fill="#004E41"/>
</svg>
