<svg width="72" height="44" viewBox="0 0 72 44" fill="none" xmlns="http://www.w3.org/2000/svg">
<g clip-path="url(#clip0_1003_2)">
<path d="M10.7945 20.3462C10.2499 19.8622 9.48334 19.6304 8.7676 19.6304C8.39413 19.6304 7.49655 19.6705 7.49655 20.2258C7.49655 21.4559 12.004 20.6492 12.004 23.4329C12.004 25.2075 10.249 25.6416 8.83712 25.6416C7.62669 25.6416 6.2255 25.2984 5.48926 24.26L6.73 23.1102C7.20419 23.8465 8.08127 24.1183 8.92804 24.1183C9.44234 24.1183 10.3096 24.088 10.3096 23.4632C10.3096 22.2634 5.76201 22.9088 5.76201 20.3676C5.76201 18.6633 7.44574 18.1187 8.78721 18.1187C9.80601 18.1187 10.9255 18.2899 11.7518 18.9459L10.7936 20.3479L10.7945 20.3462Z" fill="#C3C3C3"/>
<path d="M13.6475 25.4683V18.2378H15.3615V25.4683H13.6475Z" fill="#C3C3C3"/>
<path d="M24.7614 24.3599C24.1963 25.0658 22.9867 25.6309 21.4536 25.6309C19.0131 25.6309 17.0771 24.2698 17.0771 21.8597C17.0771 19.6919 18.6406 18.1187 21.6453 18.1187C23.2087 18.1187 24.3781 18.6936 24.8015 19.2783L23.7221 20.5895C23.2283 19.9843 22.5018 19.7017 21.4527 19.7017C19.8091 19.7017 18.8411 20.5592 18.8411 21.8597C18.8411 23.1601 19.8492 24.0078 21.4527 24.0078C22.4305 24.0078 23.2078 23.7858 23.6811 23.1307L24.7605 24.3608L24.7614 24.3599Z" fill="#C3C3C3"/>
<path d="M35.4695 25.9154L31.3506 18.2383H33.3374L35.4703 22.8359L37.5534 18.2383H39.4395L35.4712 25.9154H35.4695Z" fill="#C3C3C3"/>
<path d="M44.1264 25.6411C41.686 25.6411 39.7803 24.1989 39.7803 21.9501C39.7803 19.7012 41.5148 18.1182 44.1264 18.1182C46.7381 18.1182 48.5127 19.7012 48.5127 21.9501C48.5127 24.1989 46.6774 25.6411 44.1264 25.6411ZM44.1264 19.7315C42.6539 19.7315 41.5246 20.5685 41.5246 21.9501C41.5246 23.3317 42.6744 24.0581 44.1264 24.0581C45.5784 24.0581 46.7283 23.3317 46.7283 21.9501C46.7283 20.5685 45.639 19.7315 44.1264 19.7315Z" fill="#C3C3C3"/>
<path d="M50.1875 25.4689V18.2383H51.9015V23.8752H56.1372V25.4689H50.1875Z" fill="#C3C3C3"/>
<path d="M61.4311 25.6411C58.9906 25.6411 57.085 24.1989 57.085 21.9501C57.085 19.7012 58.8195 18.1182 61.4311 18.1182C64.0427 18.1182 65.8174 19.7012 65.8174 21.9501C65.8174 24.1989 63.9821 25.6411 61.4311 25.6411ZM61.4311 19.7315C59.9586 19.7315 58.8293 20.5685 58.8293 21.9501C58.8293 23.3317 59.9791 24.0581 61.4311 24.0581C62.8831 24.0581 64.0329 23.3317 64.0329 21.9501C64.0329 20.5685 62.9437 19.7315 61.4311 19.7315Z" fill="#C3C3C3"/>
<path d="M35.6535 0C15.963 0 0 8.5916 0 19.1896C0 20.1442 0.130135 21.0828 0.380601 22C0.130135 22.9172 0 23.8558 0 24.8104C0 35.4084 15.963 44 35.6535 44C55.3441 44 71.307 35.4084 71.307 24.8104C71.307 23.8558 71.1769 22.9172 70.9264 22C71.1769 21.0828 71.307 20.1442 71.307 19.1896C71.307 8.5916 55.3441 0 35.6535 0ZM4.19464 12.8148C5.00397 11.7853 6.01207 10.7861 7.1931 9.84572C8.3857 8.89555 9.76193 7.99797 11.2826 7.17973C14.4165 5.49331 18.079 4.16522 22.1694 3.23466C26.4362 2.26311 30.9731 1.77109 35.6544 1.77109C40.3357 1.77109 44.8726 2.264 49.1395 3.23466C53.2298 4.16611 56.8923 5.49331 60.0262 7.17973C61.5469 7.99797 62.9231 8.89466 64.1157 9.84572C65.2958 10.7861 66.3048 11.7853 67.1142 12.8148C68.6286 14.7418 69.4397 16.7572 69.5288 18.809C64.8475 11.1506 51.4507 5.62167 35.6544 5.62167C19.8581 5.62167 6.46131 11.1506 1.77911 18.809C1.86824 16.7563 2.68026 14.7418 4.19464 12.8148ZM69.0796 22.0009C68.682 23.214 68.0251 24.4057 67.1133 25.5653C66.3039 26.5948 65.2958 27.594 64.1148 28.5344C62.9222 29.4846 61.546 30.3821 60.0254 31.2004C56.8914 32.8868 53.2289 34.2149 49.1386 35.1454C44.8717 36.117 40.3348 36.609 35.6535 36.609C30.9722 36.609 26.4353 36.1161 22.1685 35.1454C18.0781 34.214 14.4156 32.8868 11.2817 31.2004C9.76104 30.3821 8.38481 29.4855 7.1922 28.5344C6.01118 27.594 5.00308 26.5948 4.19374 25.5653C3.28191 24.4057 2.62588 23.2131 2.22745 22.0009C2.62499 20.7887 3.28191 19.5961 4.19374 18.4364C5.00308 17.4069 6.01118 16.4077 7.1922 15.4674C8.38481 14.5172 9.76104 13.6196 11.2817 12.8014C14.4156 11.115 18.0781 9.78689 22.1685 8.85633C26.4353 7.88477 30.9722 7.39276 35.6535 7.39276C40.3348 7.39276 44.8717 7.88567 49.1386 8.85633C53.2289 9.78778 56.8914 11.115 60.0254 12.8014C61.546 13.6196 62.9222 14.5163 64.1148 15.4674C65.2949 16.4077 66.3039 17.4069 67.1133 18.4364C68.0251 19.5961 68.6811 20.7887 69.0796 22.0009ZM67.1133 31.187C66.3039 32.2165 65.2958 33.2157 64.1148 34.1561C62.9222 35.1062 61.546 36.0038 60.0254 36.8221C56.8914 38.5085 53.2289 39.8366 49.1386 40.7671C44.8717 41.7387 40.3348 42.2307 35.6535 42.2307C30.9722 42.2307 26.4353 41.7378 22.1685 40.7671C18.0781 39.8357 14.4156 38.5085 11.2817 36.8221C9.76104 36.0038 8.38481 35.1071 7.1922 34.1561C6.01118 33.2157 5.00308 32.2165 4.19374 31.187C2.67936 29.2599 1.86824 27.2446 1.77911 25.1928C6.46042 32.8511 19.8572 38.3801 35.6535 38.3801C51.4498 38.3801 64.8457 32.8511 69.5279 25.1928C69.4388 27.2455 68.6277 29.2599 67.1133 31.187Z" fill="#C3C3C3"/>
</g>
<defs>
<clipPath id="clip0_1003_2">
<rect width="72" height="44" fill="white"/>
</clipPath>
</defs>
</svg>
