<svg width="20" height="20" viewBox="0 0 20 20" fill="none" xmlns="http://www.w3.org/2000/svg">
<path d="M10.0006 7.39658C8.56699 7.39658 7.39707 8.5665 7.39707 10.0001C7.39707 11.4337 8.56699 12.6036 10.0006 12.6036C11.4342 12.6036 12.6041 11.4337 12.6041 10.0001C12.6041 8.5665 11.4342 7.39658 10.0006 7.39658ZM17.8092 10.0001C17.8092 8.92197 17.8189 7.85361 17.7584 6.77744C17.6978 5.52744 17.4127 4.41806 16.4986 3.504C15.5826 2.58798 14.4752 2.30478 13.2252 2.24423C12.1471 2.18369 11.0787 2.19345 10.0025 2.19345C8.92441 2.19345 7.85605 2.18369 6.77988 2.24423C5.52988 2.30478 4.4205 2.58994 3.50644 3.504C2.59042 4.42001 2.30722 5.52744 2.24667 6.77744C2.18613 7.85556 2.19589 8.92392 2.19589 10.0001C2.19589 11.0763 2.18613 12.1466 2.24667 13.2227C2.30722 14.4727 2.59238 15.5821 3.50644 16.4962C4.42246 17.4122 5.52988 17.6954 6.77988 17.7559C7.858 17.8165 8.92636 17.8067 10.0025 17.8067C11.0807 17.8067 12.149 17.8165 13.2252 17.7559C14.4752 17.6954 15.5846 17.4102 16.4986 16.4962C17.4146 15.5802 17.6978 14.4727 17.7584 13.2227C17.8209 12.1466 17.8092 11.0782 17.8092 10.0001ZM10.0006 14.0059C7.78378 14.0059 5.99472 12.2169 5.99472 10.0001C5.99472 7.7833 7.78378 5.99423 10.0006 5.99423C12.2174 5.99423 14.0064 7.7833 14.0064 10.0001C14.0064 12.2169 12.2174 14.0059 10.0006 14.0059ZM14.1705 6.76572C13.6529 6.76572 13.235 6.34775 13.235 5.83017C13.235 5.31259 13.6529 4.89462 14.1705 4.89462C14.6881 4.89462 15.1061 5.31259 15.1061 5.83017C15.1062 5.95307 15.0821 6.0748 15.0352 6.18837C14.9882 6.30195 14.9193 6.40514 14.8324 6.49205C14.7455 6.57895 14.6423 6.64786 14.5287 6.69482C14.4151 6.74178 14.2934 6.76587 14.1705 6.76572Z" fill="white"/>
</svg>
