<svg width="64" height="40" viewBox="0 0 64 40" fill="none" xmlns="http://www.w3.org/2000/svg">
<path d="M32 0C14.3272 0 0 7.81055 0 17.4451C0 18.3129 0.1168 19.1662 0.3416 20C0.1168 20.8338 0 21.6871 0 22.5549C0 32.1894 14.3272 40 32 40C49.6728 40 64 32.1894 64 22.5549C64 21.6871 63.8832 20.8338 63.6584 20C63.8832 19.1662 64 18.3129 64 17.4451C64 7.81055 49.6728 0 32 0ZM3.7648 11.6498C4.4912 10.7139 5.396 9.80553 6.456 8.95065C7.5264 8.08687 8.7616 7.27089 10.1264 6.52702C12.9392 4.99392 16.2264 3.78657 19.8976 2.9406C23.7272 2.05737 27.7992 1.61008 32.0008 1.61008C36.2024 1.61008 40.2744 2.05818 44.104 2.9406C47.7752 3.78738 51.0624 4.99392 53.8752 6.52702C55.24 7.27089 56.4752 8.08605 57.5456 8.95065C58.6048 9.80553 59.5104 10.7139 60.2368 11.6498C61.596 13.4017 62.324 15.2338 62.404 17.0991C58.2024 10.1369 46.1784 5.11061 32.0008 5.11061C17.8232 5.11061 5.7992 10.1369 1.5968 17.0991C1.6768 15.233 2.4048 13.4017 3.764 11.6498H3.7648ZM62.0008 20.0008C61.644 21.1036 61.0544 22.187 60.236 23.2412C59.5096 24.1771 58.6048 25.0855 57.5448 25.9404C56.4744 26.8041 55.2392 27.6201 53.8744 28.364C51.0616 29.8971 47.7744 31.1044 44.1032 31.9504C40.2736 32.8336 36.2016 33.2809 32 33.2809C27.7984 33.2809 23.7264 32.8328 19.8968 31.9504C16.2256 31.1036 12.9384 29.8971 10.1256 28.364C8.7608 27.6201 7.5256 26.805 6.4552 25.9404C5.3952 25.0855 4.4904 24.1771 3.764 23.2412C2.9456 22.187 2.3568 21.1028 1.9992 20.0008C2.356 18.8988 2.9456 17.8146 3.764 16.7604C4.4904 15.8245 5.3952 14.9161 6.4552 14.0613C7.5256 13.1975 8.7608 12.3815 10.1256 11.6376C12.9384 10.1045 16.2256 8.89717 19.8968 8.05121C23.7264 7.16798 27.7984 6.72069 32 6.72069C36.2016 6.72069 40.2736 7.16879 44.1032 8.05121C47.7744 8.89798 51.0616 10.1045 53.8744 11.6376C55.2392 12.3815 56.4744 13.1967 57.5448 14.0613C58.604 14.9161 59.5096 15.8245 60.236 16.7604C61.0544 17.8146 61.6432 18.8988 62.0008 20.0008ZM60.236 28.3518C59.5096 29.2877 58.6048 30.1961 57.5448 31.051C56.4744 31.9148 55.2392 32.7307 53.8744 33.4746C51.0616 35.0077 47.7744 36.2151 44.1032 37.061C40.2736 37.9443 36.2016 38.3915 32 38.3915C27.7984 38.3915 23.7264 37.9434 19.8968 37.061C16.2256 36.2142 12.9384 35.0077 10.1256 33.4746C8.7608 32.7307 7.5256 31.9156 6.4552 31.051C5.3952 30.1961 4.4904 29.2877 3.764 28.3518C2.4048 26.6 1.6768 24.7678 1.5968 22.9025C5.7984 29.8647 17.8224 34.891 32 34.891C46.1776 34.891 58.2008 29.8647 62.4032 22.9025C62.3232 24.7687 61.5952 26.6 60.236 28.3518Z" fill="#004E41"/>
</svg>
