<svg width="36" height="37" viewBox="0 0 36 37" fill="none" xmlns="http://www.w3.org/2000/svg">
<path d="M18.0001 15.7301C16.5665 15.7301 15.3966 16.9 15.3966 18.3336C15.3966 19.7672 16.5665 20.9371 18.0001 20.9371C19.4337 20.9371 20.6036 19.7672 20.6036 18.3336C20.6036 16.9 19.4337 15.7301 18.0001 15.7301ZM25.8087 18.3336C25.8087 17.2555 25.8185 16.1871 25.7579 15.1109C25.6974 13.8609 25.4122 12.7516 24.4981 11.8375C23.5821 10.9215 22.4747 10.6383 21.2247 10.5777C20.1466 10.5172 19.0782 10.5269 18.002 10.5269C16.9239 10.5269 15.8556 10.5172 14.7794 10.5777C13.5294 10.6383 12.42 10.9234 11.506 11.8375C10.5899 12.7535 10.3067 13.8609 10.2462 15.1109C10.1856 16.1891 10.1954 17.2574 10.1954 18.3336C10.1954 19.4098 10.1856 20.4801 10.2462 21.5562C10.3067 22.8062 10.5919 23.9156 11.506 24.8297C12.422 25.7457 13.5294 26.0289 14.7794 26.0894C15.8575 26.15 16.9259 26.1402 18.002 26.1402C19.0802 26.1402 20.1485 26.15 21.2247 26.0894C22.4747 26.0289 23.5841 25.7437 24.4981 24.8297C25.4142 23.9137 25.6974 22.8062 25.7579 21.5562C25.8204 20.4801 25.8087 19.4117 25.8087 18.3336ZM18.0001 22.3394C15.7833 22.3394 13.9942 20.5504 13.9942 18.3336C13.9942 16.1168 15.7833 14.3277 18.0001 14.3277C20.2169 14.3277 22.006 16.1168 22.006 18.3336C22.006 20.5504 20.2169 22.3394 18.0001 22.3394ZM22.17 15.0992C21.6524 15.0992 21.2345 14.6812 21.2345 14.1637C21.2345 13.6461 21.6524 13.2281 22.17 13.2281C22.6876 13.2281 23.1056 13.6461 23.1056 14.1637C23.1057 14.2866 23.0816 14.4083 23.0347 14.5219C22.9877 14.6354 22.9188 14.7386 22.8319 14.8255C22.745 14.9124 22.6418 14.9814 22.5282 15.0283C22.4146 15.0753 22.2929 15.0994 22.17 15.0992Z" fill="white"/>
<rect x="0.5" y="0.833496" width="35" height="35" rx="6.5" stroke="#004E41"/>
</svg>
