<svg width="32" height="32" viewBox="0 0 32 32" fill="none" xmlns="http://www.w3.org/2000/svg">
<path d="M16.0022 18.8934C13.1622 18.8934 10.8422 16.5867 10.8422 13.7334C10.8422 10.88 13.1622 8.58669 16.0022 8.58669C18.8422 8.58669 21.1622 10.8934 21.1622 13.7467C21.1622 16.6 18.8422 18.8934 16.0022 18.8934ZM16.0022 10.5867C14.2689 10.5867 12.8422 12 12.8422 13.7467C12.8422 15.4934 14.2555 16.9067 16.0022 16.9067C17.7489 16.9067 19.1622 15.4934 19.1622 13.7467C19.1622 12 17.7355 10.5867 16.0022 10.5867Z" fill="#F9FFFE"/>
<path d="M16.0022 30.3467C14.0289 30.3467 12.0422 29.6 10.4955 28.12C6.56219 24.3334 2.21552 18.2934 3.85552 11.1067C5.33552 4.58669 11.0289 1.66669 16.0022 1.66669C16.0022 1.66669 16.0022 1.66669 16.0155 1.66669C20.9889 1.66669 26.6822 4.58669 28.1622 11.12C29.7889 18.3067 25.4422 24.3334 21.5089 28.12C19.9622 29.6 17.9755 30.3467 16.0022 30.3467ZM16.0022 3.66669C12.1222 3.66669 7.13552 5.73335 5.81552 11.5467C4.37552 17.8267 8.32219 23.24 11.8955 26.6667C14.2022 28.8934 17.8155 28.8934 20.1222 26.6667C23.6822 23.24 27.6289 17.8267 26.2155 11.5467C24.8822 5.73335 19.8822 3.66669 16.0022 3.66669Z" fill="#F9FFFE"/>
</svg>
