<svg width="600" height="80" viewBox="0 0 600 80" fill="none" xmlns="http://www.w3.org/2000/svg">
<path d="M54.3584 22.8104C48.7911 17.8617 40.9041 15.4647 33.5584 15.4647C29.7695 15.4647 20.568 15.8513 20.568 21.5732C20.568 34.177 66.8075 25.9034 66.8075 54.4358C66.8075 72.6068 48.7911 77.0915 34.3316 77.0915C21.9599 77.0915 7.5777 73.612 0 62.9413L12.6811 51.1882C17.5524 58.7659 26.522 61.5495 35.2595 61.5495C40.5175 61.5495 49.4097 61.2402 49.4097 54.8224C49.4097 42.5279 2.78364 49.1004 2.78364 23.0424C2.78364 5.56728 20.0268 0 33.7904 0C44.229 0 55.6729 1.77844 64.1785 8.50558L54.3584 22.8104Z" fill="white"/>
<path d="M83.6956 75.4229V1.26965H101.248V75.4229H83.6956Z" fill="white"/>
<path d="M197.548 64.0238C191.749 71.2922 179.377 77.0142 163.603 77.0142C138.551 77.0142 118.756 63.0186 118.756 38.3525C118.756 16.0833 134.762 0 165.614 0C181.62 0 193.605 5.87658 198.012 11.9078L186.955 25.3621C181.852 19.1762 174.429 16.2379 163.681 16.2379C146.824 16.2379 136.927 25.0528 136.927 38.3525C136.927 51.4974 147.288 60.3896 163.681 60.3896C173.733 60.3896 181.697 58.1473 186.569 51.4201L197.548 64.0238Z" fill="white"/>
<path d="M288.813 79.985L246.594 1.26965H266.93L288.813 48.437L310.154 1.26965H329.485L288.813 79.985Z" fill="white"/>
<path d="M377.563 77.0915C352.51 77.0915 333.024 62.3227 333.024 39.2803C333.024 16.2379 350.809 0 377.563 0C403.698 0 422.565 16.2379 422.565 39.2803C422.488 62.3227 403.698 77.0915 377.563 77.0915ZM377.563 16.5472C362.485 16.5472 350.886 25.1301 350.886 39.2803C350.886 53.4305 362.639 60.8536 377.563 60.8536C392.873 60.8536 404.239 53.4305 404.239 39.2803C404.239 25.1301 393.027 16.5472 377.563 16.5472Z" fill="white"/>
<path d="M439.67 75.4229V1.26965H457.223V59.1076H500.679V75.4229H439.67Z" fill="white"/>
<path d="M554.915 77.0915C529.862 77.0915 510.377 62.3227 510.377 39.2803C510.377 16.2379 528.161 0 554.915 0C581.051 0 599.918 16.2379 599.918 39.2803C599.918 62.3227 581.128 77.0915 554.915 77.0915ZM554.915 16.5472C539.837 16.5472 528.239 25.1301 528.239 39.2803C528.239 53.4305 539.992 60.8536 554.915 60.8536C570.225 60.8536 581.592 53.4305 581.592 39.2803C581.592 25.1301 570.457 16.5472 554.915 16.5472Z" fill="white"/>
</svg>
