<svg width="49" height="48" viewBox="0 0 49 48" fill="none" xmlns="http://www.w3.org/2000/svg">
<path d="M24.5 0C10.9693 0 0 9.37266 0 20.9341C0 21.9755 0.089425 22.9994 0.261537 24C0.089425 25.0006 0 26.0245 0 27.0659C0 38.6273 10.9693 48 24.5 48C38.0307 48 49 38.6273 49 27.0659C49 26.0245 48.9106 25.0006 48.7385 24C48.9106 22.9994 49 21.9755 49 20.9341C49 9.37266 38.0307 0 24.5 0ZM2.88243 13.9797C3.43858 12.8567 4.13131 11.7666 4.94287 10.7408C5.7624 9.70424 6.7081 8.72506 7.75303 7.83243C9.90658 5.99271 12.4233 4.54388 15.2341 3.52873C18.1661 2.46884 21.2838 1.9321 24.5006 1.9321C27.7175 1.9321 30.8351 2.46982 33.7671 3.52873C36.5779 4.54485 39.0947 5.99271 41.2482 7.83243C42.2931 8.72506 43.2388 9.70327 44.0583 10.7408C44.8693 11.7666 45.5627 12.8567 46.1188 13.9797C47.1594 16.082 47.7168 18.2805 47.7781 20.5189C44.5612 12.1643 35.3553 6.13273 24.5006 6.13273C13.6459 6.13273 4.44001 12.1643 1.22255 20.5189C1.2838 18.2796 1.84117 16.082 2.88181 13.9797H2.88243ZM47.4694 24.001C47.1962 25.3244 46.7448 26.6244 46.1182 27.8895C45.562 29.0126 44.8693 30.1026 44.0577 31.1284C43.2382 32.165 42.2925 33.1442 41.2476 34.0368C39.094 35.8765 36.5773 37.3253 33.7665 38.3405C30.8345 39.4004 27.7169 39.9371 24.5 39.9371C21.2831 39.9371 18.1655 39.3994 15.2335 38.3405C12.4227 37.3244 9.90596 35.8765 7.75241 34.0368C6.70749 33.1442 5.76179 32.166 4.94226 31.1284C4.1307 30.1026 3.43796 29.0126 2.88181 27.8895C2.25522 26.6244 1.80443 25.3234 1.53064 24.001C1.80381 22.6786 2.25522 21.3775 2.88181 20.1125C3.43796 18.9894 4.1307 17.8994 4.94226 16.8735C5.76179 15.837 6.70749 14.8578 7.75241 13.9652C9.90596 12.1254 12.4227 10.6766 15.2335 9.66145C18.1655 8.60157 21.2831 8.06482 24.5 8.06482C27.7169 8.06482 30.8345 8.60254 33.7665 9.66145C36.5773 10.6776 39.094 12.1254 41.2476 13.9652C42.2925 14.8578 43.2382 15.836 44.0577 16.8735C44.8687 17.8994 45.562 18.9894 46.1182 20.1125C46.7448 21.3775 47.1956 22.6786 47.4694 24.001ZM46.1182 34.0222C45.562 35.1453 44.8693 36.2353 44.0577 37.2612C43.2382 38.2977 42.2925 39.2769 41.2476 40.1695C39.094 42.0092 36.5773 43.4581 33.7665 44.4732C30.8345 45.5331 27.7169 46.0698 24.5 46.0698C21.2831 46.0698 18.1655 45.5321 15.2335 44.4732C12.4227 43.4571 9.90596 42.0092 7.75241 40.1695C6.70749 39.2769 5.76179 38.2987 4.94226 37.2612C4.1307 36.2353 3.43796 35.1453 2.88181 34.0222C1.84117 31.9199 1.2838 29.7214 1.22255 27.483C4.4394 35.8376 13.6453 41.8692 24.5 41.8692C35.3547 41.8692 44.56 35.8376 47.7775 27.483C47.7162 29.7224 47.1588 31.9199 46.1182 34.0222Z" fill="#004E41"/>
</svg>
