<svg width="24" height="25" viewBox="0 0 24 25" fill="none" xmlns="http://www.w3.org/2000/svg">
<path d="M12.75 6.57953L12.75 18.5795C12.75 18.9895 12.41 19.3295 12 19.3295C11.59 19.3295 11.25 18.9895 11.25 18.5795L11.25 6.57953C11.25 6.16953 11.59 5.82953 12 5.82953C12.41 5.82953 12.75 6.16953 12.75 6.57953Z" fill="#C3C3C3"/>
<path d="M18.75 12.5796C18.75 12.9896 18.41 13.3296 18 13.3296L6 13.3296C5.59 13.3296 5.25 12.9896 5.25 12.5796C5.25 12.1696 5.59 11.8296 6 11.8296L18 11.8296C18.41 11.8296 18.75 12.1696 18.75 12.5796Z" fill="#C3C3C3"/>
</svg>
