<svg width="24" height="15" viewBox="0 0 24 15" fill="none" xmlns="http://www.w3.org/2000/svg">
<rect width="24" height="15" fill="#767676"/>
<g id="Cart" clip-path="url(#clip0_59_1433)">
<rect width="375" height="916" transform="translate(-331 -639.42)" fill="#131313"/>
<g id="Frame 334">
<g id="Frame 328" clip-path="url(#clip1_59_1433)">
<rect width="375" height="836" transform="translate(-331 -559.42)" fill="#004E41"/>
<g id="Frame 402514953">
<g id="Frame 402514951">
<g id="Frame 307">
<g id="Frame 402514872">
<path id="Vector" d="M13.1656 6.55426C14.0056 6.55426 14.6887 5.8708 14.6887 5.03111C14.6887 4.19112 14.0056 3.50796 13.1656 3.50796C12.3259 3.50796 11.6424 4.19142 11.6424 5.03111C11.6424 5.8708 12.3256 6.55426 13.1656 6.55426ZM13.1656 4.55973C13.4255 4.55973 13.6373 4.77122 13.6373 5.03111C13.6373 5.29099 13.4255 5.50248 13.1656 5.50248C12.9057 5.50248 12.6942 5.29099 12.6942 5.03111C12.6942 4.77122 12.9057 4.55973 13.1656 4.55973ZM15.774 10.0173C15.774 10.8573 16.4571 11.5404 17.2971 11.5404C18.1368 11.5404 18.8203 10.857 18.8203 10.0173C18.8203 9.17728 18.1371 8.49412 17.2971 8.49412C16.4571 8.49412 15.774 9.17758 15.774 10.0173ZM17.7685 10.0173C17.7685 10.2771 17.557 10.4886 17.2971 10.4886C17.0372 10.4886 16.8254 10.2771 16.8254 10.0173C16.8254 9.75738 17.0372 9.54589 17.2971 9.54589C17.557 9.54589 17.7685 9.75738 17.7685 10.0173ZM12.6685 10.9113L16.8834 3.61101C17.0283 3.35949 17.3497 3.27317 17.6018 3.41864C17.8533 3.56382 17.9397 3.88553 17.7942 4.13705L13.5793 11.4374C13.4819 11.6061 13.3051 11.7005 13.1232 11.7005C13.0342 11.7005 12.9436 11.6778 12.8606 11.63C12.6094 11.4846 12.5231 11.1628 12.6685 10.9113ZM23.4749 0.204163H7.65518C7.36483 0.204163 7.12944 0.43955 7.12944 0.730201C7.12944 1.32644 6.64433 1.81155 6.04809 1.81155C5.45186 1.81155 4.96674 1.32644 4.96674 0.730201C4.96674 0.439849 4.73136 0.204163 4.441 0.204163H0.525739C0.235388 0.204163 0 0.43955 0 0.730201V14.429C0 14.7193 0.235388 14.955 0.525739 14.955H4.4407C4.73106 14.955 4.96644 14.7196 4.96644 14.429C4.96644 13.8328 5.45156 13.3476 6.04779 13.3476C6.64403 13.3476 7.12914 13.8328 7.12914 14.429C7.12914 14.7193 7.36453 14.955 7.65488 14.955H23.4743C23.7646 14.955 24 14.7196 24 14.429V0.729902C24.0006 0.439551 23.7652 0.204163 23.4749 0.204163ZM22.9491 13.903H8.1155C7.88071 12.9802 7.04282 12.2956 6.04779 12.2956C5.05277 12.2956 4.21488 12.9802 3.98009 13.903H1.05118V1.25594H3.98009C4.21488 2.17867 5.05277 2.86333 6.04779 2.86333C7.04282 2.86333 7.88071 2.17897 8.1155 1.25594H22.9488V13.903H22.9491ZM5.52205 3.96977H6.57383V5.66379H5.52205V3.96977ZM5.52205 6.73259H6.57383V8.42631H5.52205V6.73259ZM5.52205 9.49541H6.57383V11.1891H5.52205V9.49541Z" fill="#F9FFFE"/>
</g>
</g>
</g>
</g>
</g>
</g>
</g>
<defs>
<clipPath id="clip0_59_1433">
<rect width="375" height="916" fill="white" transform="translate(-331 -639.42)"/>
</clipPath>
<clipPath id="clip1_59_1433">
<rect width="375" height="836" fill="white" transform="translate(-331 -559.42)"/>
</clipPath>
</defs>
</svg>
