<svg width="254" height="158" viewBox="0 0 254 158" fill="none" xmlns="http://www.w3.org/2000/svg">
<path d="M254 69.3385C254 31.5235 197.138 0.869141 127 0.869141C56.8616 0.869141 0 31.5235 0 69.3385C0 72.7464 0.463192 76.0927 1.35678 79.3691C0.467291 82.6415 0 85.9919 0 89.3998C0 127.215 56.8575 157.869 127 157.869C197.142 157.869 254 127.215 254 89.3998C254 85.9919 253.537 82.6456 252.643 79.3691C253.533 76.0968 254 72.7464 254 69.3385ZM14.9409 46.592C17.8225 42.9173 21.4174 39.3534 25.623 35.9989C29.8737 32.6075 34.772 29.409 40.1909 26.4856C51.3525 20.4664 64.3997 15.7324 78.9677 12.4107C94.1668 8.94537 110.325 7.18806 127 7.18806C143.675 7.18806 159.833 8.94537 175.032 12.4107C189.6 15.7324 202.647 20.4705 213.809 26.4856C219.224 29.4049 224.126 32.6075 228.377 35.9989C232.583 39.3534 236.177 42.9173 239.059 46.592C244.453 53.4694 247.343 60.6587 247.659 67.9795C230.984 40.655 183.263 20.9263 127 20.9263C70.7368 20.9263 23.016 40.655 6.34119 67.9795C6.66091 60.6546 9.54662 53.4652 14.9409 46.592ZM246.06 79.3691C244.642 83.6967 242.305 87.9463 239.055 92.0891C236.173 95.7639 232.579 99.3277 228.373 102.682C224.122 106.074 219.224 109.272 213.805 112.196C202.643 118.215 189.596 122.949 175.028 126.27C159.829 129.736 143.671 131.493 126.996 131.493C110.321 131.493 94.1627 129.736 78.9636 126.27C64.3956 122.949 51.3484 118.211 40.1868 112.196C34.772 109.276 29.8696 106.074 25.6189 102.682C21.4133 99.3277 17.8184 95.7639 14.9368 92.0891C11.6904 87.9504 9.34987 83.6967 7.93161 79.3691C9.34987 75.0416 11.6863 70.792 14.9368 66.6492C17.8184 62.9744 21.4133 59.4105 25.6189 56.056C29.8696 52.6646 34.7679 49.4661 40.1868 46.5428C51.3484 40.5236 64.3956 35.7895 78.9636 32.4679C94.1627 29.0025 110.321 27.2452 126.996 27.2452C143.671 27.2452 159.829 29.0025 175.028 32.4679C189.596 35.7895 202.643 40.5277 213.805 46.5428C219.22 49.462 224.122 52.6646 228.373 56.056C232.579 59.4105 236.173 62.9744 239.055 66.6492C242.301 70.7879 244.642 75.0416 246.06 79.3691ZM239.055 112.146C236.173 115.821 232.579 119.385 228.373 122.739C224.122 126.131 219.224 129.329 213.805 132.253C202.643 138.272 189.596 143.006 175.028 146.328C159.829 149.793 143.671 151.55 126.996 151.55C110.321 151.55 94.1627 149.793 78.9636 146.328C64.3956 143.006 51.3484 138.268 40.1868 132.253C34.772 129.333 29.8696 126.131 25.6189 122.739C21.4133 119.385 17.8184 115.821 14.9368 112.146C9.54252 105.269 6.65271 98.0796 6.33709 90.7588C23.0119 118.083 70.7327 137.812 126.996 137.812C183.259 137.812 230.98 118.083 247.655 90.7588C247.335 98.0837 244.449 105.273 239.055 112.146Z" fill="white"/>
</svg>
