<svg width="79" height="49" viewBox="0 0 79 49" fill="none" xmlns="http://www.w3.org/2000/svg">
<path d="M79 21.3694C79 9.56729 61.3147 0 39.5 0C17.6853 0 0 9.56729 0 21.3694C0 22.433 0.144064 23.4774 0.42199 24.5C0.145338 25.5213 0 26.567 0 27.6306C0 39.4327 17.684 49 39.5 49C61.316 49 79 39.4327 79 27.6306C79 26.567 78.8559 25.5226 78.578 24.5C78.8547 23.4787 79 22.433 79 21.3694ZM4.64698 14.2702C5.54323 13.1233 6.66131 12.011 7.96935 10.9641C9.29142 9.90559 10.8149 8.90734 12.5003 7.99495C15.9719 6.11635 20.0298 4.63884 24.5608 3.60215C29.2881 2.52061 34.3137 1.97215 39.5 1.97215C44.6863 1.97215 49.7119 2.52061 54.4392 3.60215C58.9702 4.63884 63.0281 6.11763 66.4997 7.99495C68.1838 8.90606 69.7086 9.90559 71.0306 10.9641C72.3387 12.011 73.4568 13.1233 74.353 14.2702C76.0308 16.4166 76.9296 18.6604 77.0277 20.9453C71.8415 12.4172 56.9992 6.25987 39.5 6.25987C22.0008 6.25987 7.15852 12.4172 1.97226 20.9453C2.0717 18.6592 2.96923 16.4153 4.64698 14.2702ZM76.5305 24.5C76.0894 25.8506 75.3627 27.1769 74.3517 28.4699C73.4555 29.6168 72.3374 30.7291 71.0294 31.7761C69.7073 32.8345 68.1838 33.8328 66.4984 34.7452C63.0269 36.6238 58.9689 38.1013 54.4379 39.138C49.7106 40.2195 44.685 40.768 39.4987 40.768C34.3125 40.768 29.2868 40.2195 24.5595 39.138C20.0286 38.1013 15.9706 36.6225 12.499 34.7452C10.8149 33.8341 9.29014 32.8345 7.96808 31.7761C6.66004 30.7291 5.54196 29.6168 4.64571 28.4699C3.63599 27.1782 2.90803 25.8506 2.46692 24.5C2.90803 23.1494 3.63472 21.8231 4.64571 20.5301C5.54196 19.3832 6.66004 18.2709 7.96808 17.2239C9.29014 16.1655 10.8136 15.1672 12.499 14.2548C15.9706 12.3762 20.0286 10.8987 24.5595 9.86202C29.2868 8.78048 34.3125 8.23202 39.4987 8.23202C44.685 8.23202 49.7106 8.78048 54.4379 9.86202C58.9689 10.8987 63.0269 12.3775 66.4984 14.2548C68.1825 15.1659 69.7073 16.1655 71.0294 17.2239C72.3374 18.2709 73.4555 19.3832 74.3517 20.5301C75.3615 21.8218 76.0894 23.1494 76.5305 24.5ZM74.3517 34.7298C73.4555 35.8767 72.3374 36.989 71.0294 38.0359C69.7073 39.0944 68.1838 40.0927 66.4984 41.005C63.0269 42.8836 58.9689 44.3612 54.4379 45.3978C49.7106 46.4794 44.685 47.0278 39.4987 47.0278C34.3125 47.0278 29.2868 46.4794 24.5595 45.3978C20.0286 44.3612 15.9706 42.8824 12.499 41.005C10.8149 40.0939 9.29014 39.0944 7.96808 38.0359C6.66004 36.989 5.54196 35.8767 4.64571 34.7298C2.96795 32.5834 2.06915 30.3396 1.97098 28.0547C7.15725 36.5828 21.9995 42.7401 39.4987 42.7401C56.9979 42.7401 71.8402 36.5828 77.0265 28.0547C76.927 30.3408 76.0295 32.5847 74.3517 34.7298Z" fill="#004E41"/>
</svg>
