<svg width="254" height="157" viewBox="0 0 254 157" fill="none" xmlns="http://www.w3.org/2000/svg">
<path d="M254 68.4694C254 30.6544 197.138 0 127 0C56.8616 0 0 30.6544 0 68.4694C0 71.8772 0.463192 75.2235 1.35678 78.5C0.467291 81.7724 0 85.1228 0 88.5306C0 126.346 56.8575 157 127 157C197.142 157 254 126.346 254 88.5306C254 85.1228 253.537 81.7765 252.643 78.5C253.533 75.2276 254 71.8772 254 68.4694ZM14.9409 45.7229C17.8225 42.0481 21.4174 38.4843 25.623 35.1298C29.8737 31.7383 34.772 28.5399 40.1909 25.6165C51.3525 19.5973 64.3997 14.8632 78.9677 11.5416C94.1668 8.07623 110.325 6.31892 127 6.31892C143.675 6.31892 159.833 8.07623 175.032 11.5416C189.6 14.8632 202.647 19.6014 213.809 25.6165C219.224 28.5357 224.126 31.7383 228.377 35.1298C232.583 38.4843 236.177 42.0481 239.059 45.7229C244.453 52.6002 247.343 59.7896 247.659 67.1103C230.984 39.7858 183.263 20.0571 127 20.0571C70.7368 20.0571 23.016 39.7858 6.34119 67.1103C6.66091 59.7855 9.54662 52.5961 14.9409 45.7229ZM246.06 78.5C244.642 82.8276 242.305 87.0771 239.055 91.22C236.173 94.8947 232.579 98.4586 228.373 101.813C224.122 105.205 219.224 108.403 213.805 111.326C202.643 117.346 189.596 122.08 175.028 125.401C159.829 128.867 143.671 130.624 126.996 130.624C110.321 130.624 94.1627 128.867 78.9636 125.401C64.3956 122.08 51.3484 117.341 40.1868 111.326C34.772 108.407 29.8696 105.205 25.6189 101.813C21.4133 98.4586 17.8184 94.8947 14.9368 91.22C11.6904 87.0813 9.34987 82.8276 7.93161 78.5C9.34987 74.1724 11.6863 69.9229 14.9368 65.78C17.8184 62.1053 21.4133 58.5414 25.6189 55.1869C29.8696 51.7955 34.7679 48.597 40.1868 45.6736C51.3484 39.6544 64.3956 34.9204 78.9636 31.5987C94.1627 28.1334 110.321 26.3761 126.996 26.3761C143.671 26.3761 159.829 28.1334 175.028 31.5987C189.596 34.9204 202.643 39.6585 213.805 45.6736C219.22 48.5929 224.122 51.7955 228.373 55.1869C232.579 58.5414 236.173 62.1053 239.055 65.78C242.301 69.9187 244.642 74.1724 246.06 78.5ZM239.055 111.277C236.173 114.952 232.579 118.516 228.373 121.87C224.122 125.262 219.224 128.46 213.805 131.384C202.643 137.403 189.596 142.137 175.028 145.458C159.829 148.924 143.671 150.681 126.996 150.681C110.321 150.681 94.1627 148.924 78.9636 145.458C64.3956 142.137 51.3484 137.399 40.1868 131.384C34.772 128.464 29.8696 125.262 25.6189 121.87C21.4133 118.516 17.8184 114.952 14.9368 111.277C9.54252 104.4 6.65271 97.2104 6.33709 89.8897C23.0119 117.214 70.7327 136.943 126.996 136.943C183.259 136.943 230.98 117.214 247.655 89.8897C247.335 97.2145 244.449 104.404 239.055 111.277Z" fill="#004E41"/>
</svg>
