<svg width="20" height="20" viewBox="0 0 20 20" fill="none" xmlns="http://www.w3.org/2000/svg">
<path d="M8.52881 3.21625C5.59506 3.21625 3.21631 5.595 3.21631 8.52875C3.21631 11.4625 5.59506 13.8412 8.52881 13.8412C11.4626 13.8412 13.8413 11.4625 13.8413 8.52875C13.8413 5.595 11.4626 3.21625 8.52881 3.21625ZM4.46631 8.52875C4.46631 6.285 6.28506 4.46625 8.52881 4.46625C10.7726 4.46625 12.5913 6.285 12.5913 8.52875C12.5913 10.7725 10.7726 12.5912 8.52881 12.5912C6.28506 12.5912 4.46631 10.7725 4.46631 8.52875Z" fill="white"/>
<path d="M12.7744 13.6588L15.8994 16.7838L16.7832 15.9L13.6582 12.775L12.7744 13.6588Z" fill="white"/>
</svg>
