<svg width="19" height="19" viewBox="0 0 19 19" fill="none" xmlns="http://www.w3.org/2000/svg">
<path d="M11.74 7.2619C11.5856 7.10752 11.3346 7.10752 11.1802 7.2619C11.0259 7.41628 11.0259 7.66803 11.1802 7.82162C11.6283 8.26972 11.8761 8.86585 11.8761 9.50075C11.8761 10.8102 10.8105 11.8758 9.50112 11.8758C8.86621 11.8758 8.27009 11.6288 7.82199 11.1799C7.66761 11.0255 7.41664 11.0255 7.26227 11.1799C7.10789 11.3335 7.10789 11.5852 7.26227 11.7396C7.85917 12.3381 8.6548 12.6675 9.50112 12.6675C11.2475 12.6675 12.6678 11.2472 12.6678 9.50079C12.6678 8.65443 12.3385 7.85881 11.74 7.2619Z" fill="#1C1C1C"/>
<path d="M10.0524 6.38675C9.87272 6.35509 9.68906 6.33212 9.50066 6.33212C7.75424 6.33212 6.33398 7.75237 6.33398 9.49877C6.33398 9.68718 6.35696 9.87087 6.38939 10.0505C6.42342 10.2421 6.59049 10.3775 6.77811 10.3775C6.80108 10.3775 6.82402 10.3759 6.84777 10.3712C7.0623 10.3332 7.20639 10.1273 7.16839 9.9128C7.14386 9.7782 7.12564 9.64127 7.12564 9.49877C7.12564 8.18937 8.19124 7.12378 9.50066 7.12378C9.64316 7.12378 9.78013 7.142 9.91469 7.16575C10.1253 7.2085 10.3351 7.05965 10.3731 6.84512C10.4111 6.63059 10.267 6.42475 10.0524 6.38675Z" fill="#1C1C1C"/>
<path d="M18.9053 9.24301C18.8158 9.13691 16.6744 6.63764 13.7206 5.10736C13.529 5.00683 13.2876 5.08283 13.187 5.27758C13.0865 5.47155 13.1625 5.71061 13.3573 5.81118C15.6325 6.98917 17.4502 8.82742 18.0716 9.49877C17.128 10.5208 13.4143 14.2488 9.4995 14.2488C8.17109 14.2488 6.83238 13.9281 5.519 13.2948C5.32425 13.199 5.08597 13.2821 4.99098 13.4793C4.8952 13.6756 4.97832 13.9123 5.17545 14.0073C6.59647 14.6937 8.05157 15.0404 9.49953 15.0404C14.377 15.0404 18.7232 9.97057 18.9061 9.75445C19.0311 9.60716 19.0304 9.39104 18.9053 9.24301Z" fill="#1C1C1C"/>
<path d="M12.0975 4.41312C11.1966 4.1099 10.3226 3.95712 9.50004 3.95712C4.62257 3.95712 0.276333 9.02696 0.0934579 9.24308C-0.0221376 9.37924 -0.0316375 9.57718 0.0713037 9.72521C0.125929 9.80358 1.43455 11.6616 3.70267 13.1682C3.76995 13.2133 3.84517 13.2347 3.92117 13.2347C4.04864 13.2347 4.17452 13.1729 4.25052 13.0565C4.37164 12.8753 4.32177 12.629 4.13967 12.5087C2.47402 11.4012 1.33402 10.0641 0.907302 9.52018C1.81852 8.53059 5.55676 4.74881 9.50004 4.74881C10.2371 4.74881 11.0264 4.88816 11.8449 5.16284C12.0523 5.23725 12.2772 5.12247 12.3461 4.91425C12.4157 4.70684 12.3049 4.48281 12.0975 4.41312Z" fill="#1C1C1C"/>
<path d="M16.5088 2.49096C16.3544 2.33659 16.1034 2.33659 15.9491 2.49096L2.49078 15.9493C2.33641 16.1037 2.33641 16.3546 2.49078 16.509C2.56838 16.5858 2.66969 16.6246 2.77103 16.6246C2.87238 16.6246 2.97368 16.5858 3.0505 16.509L16.5088 3.05068C16.6632 2.89631 16.6632 2.64534 16.5088 2.49096Z" fill="#1C1C1C"/>
</svg>
