<svg width="78" height="48" viewBox="0 0 78 48" fill="none" xmlns="http://www.w3.org/2000/svg">
<path d="M39 0C17.4613 0 0 9.37266 0 20.9341C0 21.9755 0.14235 22.9994 0.416325 24C0.14235 25.0006 0 26.0245 0 27.0659C0 38.6273 17.4613 48 39 48C60.5387 48 78 38.6273 78 27.0659C78 26.0245 77.8576 25.0006 77.5837 24C77.8576 22.9994 78 21.9755 78 20.9341C78 9.37266 60.5387 0 39 0ZM4.58835 13.9797C5.47365 12.8567 6.57637 11.7666 7.86825 10.7408C9.1728 9.70424 10.6782 8.72506 12.3415 7.83243C15.7696 5.99271 19.7759 4.54388 24.2502 3.52873C28.9175 2.46884 33.8803 1.9321 39.001 1.9321C44.1217 1.9321 49.0844 2.46982 53.7517 3.52873C58.226 4.54485 62.2323 5.99271 65.6604 7.83243C67.3237 8.72506 68.8291 9.70327 70.1337 10.7408C71.4246 11.7666 72.5283 12.8567 73.4136 13.9797C75.0701 16.082 75.9574 18.2805 76.0549 20.5189C70.9342 12.1643 56.2799 6.13273 39.001 6.13273C21.722 6.13273 7.06777 12.1643 1.9461 20.5189C2.0436 18.2796 2.93085 16.082 4.58737 13.9797H4.58835ZM75.5635 24.001C75.1286 25.3244 74.41 26.6244 73.4126 27.8895C72.5273 29.0126 71.4246 30.1026 70.1327 31.1284C68.8282 32.165 67.3228 33.1442 65.6594 34.0368C62.2313 35.8765 58.225 37.3253 53.7508 38.3405C49.0834 39.4004 44.1207 39.9371 39 39.9371C33.8793 39.9371 28.9165 39.3994 24.2492 38.3405C19.775 37.3244 15.7687 35.8765 12.3406 34.0368C10.6772 33.1442 9.17182 32.166 7.86727 31.1284C6.5754 30.1026 5.47267 29.0126 4.58737 27.8895C3.58995 26.6244 2.87235 25.3234 2.43652 24.001C2.87137 22.6786 3.58995 21.3775 4.58737 20.1125C5.47267 18.9894 6.5754 17.8994 7.86727 16.8735C9.17182 15.837 10.6772 14.8578 12.3406 13.9652C15.7687 12.1254 19.775 10.6766 24.2492 9.66145C28.9165 8.60157 33.8793 8.06482 39 8.06482C44.1207 8.06482 49.0834 8.60254 53.7508 9.66145C58.225 10.6776 62.2313 12.1254 65.6594 13.9652C67.3228 14.8578 68.8282 15.836 70.1327 16.8735C71.4236 17.8994 72.5273 18.9894 73.4126 20.1125C74.41 21.3775 75.1276 22.6786 75.5635 24.001ZM73.4126 34.0222C72.5273 35.1453 71.4246 36.2353 70.1327 37.2612C68.8282 38.2977 67.3228 39.2769 65.6594 40.1695C62.2313 42.0092 58.225 43.4581 53.7508 44.4732C49.0834 45.5331 44.1207 46.0698 39 46.0698C33.8793 46.0698 28.9165 45.5321 24.2492 44.4732C19.775 43.4571 15.7687 42.0092 12.3406 40.1695C10.6772 39.2769 9.17182 38.2987 7.86727 37.2612C6.5754 36.2353 5.47267 35.1453 4.58737 34.0222C2.93085 31.9199 2.0436 29.7214 1.9461 27.483C7.0668 35.8376 21.721 41.8692 39 41.8692C56.2789 41.8692 70.9322 35.8376 76.0539 27.483C75.9564 29.7224 75.0691 31.9199 73.4126 34.0222Z" fill="#004E41"/>
<path d="M24 24L55.5 24M55.5 24L48.5 17M55.5 24L48.5 31" stroke="#F9FFFE"/>
</svg>
