<svg width="36" height="37" viewBox="0 0 36 37" fill="none" xmlns="http://www.w3.org/2000/svg">
<path d="M28 12.5196C27.2511 12.8583 26.4567 13.0806 25.6433 13.1791C26.4905 12.6608 27.1411 11.84 27.4474 10.862C26.642 11.3498 25.7608 11.6936 24.8419 11.8783C24.0934 11.0644 23.027 10.5557 21.8468 10.5557C19.5807 10.5557 17.7434 12.4309 17.7434 14.7439C17.7434 15.0722 17.7798 15.3918 17.8497 15.6984C14.4395 15.5237 11.4161 13.8563 9.39227 11.3223C9.03914 11.9409 8.8368 12.6604 8.8368 13.4279C8.8368 14.881 9.56125 16.1629 10.6622 16.914C10.0106 16.8932 9.37332 16.7136 8.80359 16.3901C8.80336 16.4077 8.80336 16.4252 8.80336 16.4428C8.80336 18.4721 10.2177 20.1649 12.0948 20.5497C11.4905 20.7174 10.8567 20.742 10.2418 20.6215C10.7639 22.2854 12.2793 23.4963 14.0748 23.5301C12.6705 24.6534 10.9012 25.323 8.97883 25.323C8.64758 25.323 8.32102 25.3032 8 25.2645C9.81586 26.4529 11.9727 27.1463 14.2898 27.1463C21.8373 27.1463 25.9644 20.7642 25.9644 15.2296C25.9644 15.0479 25.9605 14.8673 25.9525 14.6877C26.7558 14.095 27.4492 13.3608 28 12.5196Z" fill="white"/>
<rect x="0.5" y="0.833496" width="35" height="35" rx="6.5" stroke="#004E41"/>
</svg>
