<svg width="18" height="18" viewBox="0 0 18 18" fill="none" xmlns="http://www.w3.org/2000/svg">
<g clip-path="url(#clip0_222_7687)">
<path fill-rule="evenodd" clip-rule="evenodd" d="M9 18C13.9706 18 18 13.9706 18 9C18 4.02944 13.9706 0 9 0C4.02944 0 0 4.02944 0 9C0 13.9706 4.02944 18 9 18ZM13.0725 4.76179C13.9707 5.57031 14.4687 7.35791 14.1323 10.1894C13.838 12.6876 12.1538 13.13 11.5885 13.2786C11.5331 13.2931 11.4884 13.3049 11.4568 13.3154C11.3041 13.3662 9.96051 13.7138 8.21098 13.5621L8.03687 13.7703C7.14635 14.8356 6.9929 15.0192 6.67614 14.9165C6.38204 14.824 6.39943 14.3636 6.39943 14.3636L6.40177 13.2271H6.39943C3.84324 12.483 3.87895 9.73979 3.90901 8.27543C3.93908 6.81153 4.21344 5.62904 4.99237 4.82333C6.72688 3.17621 11.6231 3.38057 13.0729 4.76132L13.0725 4.76179ZM6.93171 14.5017C7.27607 14.1432 8.38339 12.7625 8.38339 12.7625C9.86702 12.8616 11.0486 12.5577 11.1759 12.5154C11.2055 12.5055 11.2482 12.4952 11.3014 12.4824L11.3014 12.4824L11.3015 12.4823L11.3016 12.4823L11.3016 12.4823C11.7831 12.3661 13.121 12.043 13.3684 9.98127C13.3682 9.97102 13.3718 9.93472 13.3776 9.87625L13.3776 9.87622C13.4365 9.28327 13.7215 6.41196 12.5045 5.33307C11.4108 4.30514 7.11822 3.98615 5.59654 5.41293C4.93694 6.0871 4.71331 7.08824 4.68982 8.31066L4.68713 8.44047C4.66026 9.69114 4.61302 11.8898 6.70574 12.4895C6.70574 12.4895 6.69728 14.2245 6.69728 14.3763C6.6954 14.6074 6.81896 14.6182 6.93171 14.5017ZM8.99601 5.68119C8.81514 5.68119 8.81514 5.96307 8.99601 5.96542C10.3993 5.97623 11.555 6.95435 11.5677 8.74852C11.5677 8.93785 11.8449 8.9355 11.8425 8.74617H11.8421C11.827 6.81294 10.5651 5.692 8.99601 5.68119ZM11.1167 8.45773C11.1143 8.64706 10.8376 8.63813 10.8419 8.45115C10.8635 7.51766 10.2992 6.78665 9.22809 6.70537C9.04769 6.69222 9.06648 6.40799 9.24736 6.42114C10.4825 6.51369 11.1397 7.39175 11.1167 8.45773ZM10.5459 9.6637C10.3138 9.52934 10.0775 9.61296 9.97978 9.74497L9.77541 10.0095C9.67159 10.1438 9.47756 10.126 9.47756 10.126C8.06158 9.75155 7.68292 8.2698 7.68292 8.2698C7.68292 8.2698 7.66554 8.06919 7.79521 7.96161L8.05078 7.7502C8.17856 7.64872 8.25937 7.40443 8.12923 7.16436C7.8671 6.69074 7.66987 6.45111 7.53775 6.29058C7.49464 6.23821 7.45847 6.19426 7.42923 6.15335C7.30426 5.9969 7.11634 5.96167 6.92091 6.06737H6.91668C6.5103 6.30509 6.0654 6.74999 6.20775 7.20805C6.24987 7.29179 6.2981 7.40731 6.35648 7.54712C6.63477 8.2136 7.14362 9.43225 8.3195 10.3938C8.98803 10.9439 10.046 11.5077 10.4951 11.6378L10.4994 11.6444C10.9419 11.7919 11.3723 11.3296 11.602 10.911V10.9077C11.7039 10.7052 11.6701 10.5136 11.5212 10.3881C11.2572 10.1307 10.8588 9.84645 10.5459 9.6637ZM10.1348 8.21625C10.1113 7.73189 9.89239 7.49605 9.44091 7.46974C9.25816 7.45893 9.27507 7.1747 9.45595 7.18551C10.0498 7.21839 10.3796 7.57074 10.4096 8.2031C10.4181 8.39242 10.1433 8.40558 10.1348 8.21625Z" fill="#C3C3C3"/>
</g>
<defs>
<clipPath id="clip0_222_7687">
<rect width="18" height="18" fill="white"/>
</clipPath>
</defs>
</svg>
