<svg width="18" height="18" viewBox="0 0 18 18" fill="none" xmlns="http://www.w3.org/2000/svg">
<g clip-path="url(#clip0_222_7682)">
<path d="M9 0C4.0302 0 0 4.0302 0 9C0 13.9698 4.0302 18 9 18C13.9698 18 18 13.9698 18 9C18 4.0302 13.9698 0 9 0ZM9.19075 14.2401C9.19061 14.2401 9.19089 14.2401 9.19075 14.2401H9.18855C8.28699 14.2397 7.40108 14.0136 6.61432 13.5846L3.75883 14.3335L4.52307 11.5429C4.05162 10.7264 3.8036 9.79994 3.80402 8.85086C3.80525 5.88181 6.22169 3.46632 9.19075 3.46632C10.6316 3.46687 11.9842 4.02773 13.0011 5.04547C14.0181 6.06335 14.5779 7.41632 14.5773 8.85512C14.5761 11.8243 12.1594 14.2401 9.19075 14.2401Z" fill="#C3C3C3"/>
<path d="M9.19202 4.37585C6.72243 4.37585 4.71399 6.38347 4.71289 8.85127C4.71262 9.69695 4.94937 10.5205 5.39748 11.2331L5.50391 11.4024L5.05154 13.0541L6.74605 12.6097L6.90961 12.7066C7.59694 13.1145 8.38493 13.3303 9.18831 13.3305H9.19009C11.6578 13.3305 13.6662 11.3228 13.6673 8.85484C13.6677 7.65884 13.2024 6.53439 12.3572 5.68845C11.5119 4.8425 10.3877 4.37627 9.19202 4.37585ZM11.8254 10.7755C11.7132 11.0897 11.1756 11.3766 10.917 11.4153C10.6851 11.45 10.3917 11.4644 10.0693 11.3621C9.87372 11.3 9.62309 11.2172 9.30188 11.0786C7.9518 10.4958 7.07001 9.13678 7.00272 9.04697C6.93543 8.95715 6.45313 8.31734 6.45313 7.655C6.45313 6.9928 6.80084 6.66719 6.92416 6.53261C7.04762 6.39789 7.19347 6.36424 7.28314 6.36424C7.37282 6.36424 7.46263 6.36507 7.54105 6.36891C7.62372 6.37303 7.73468 6.33746 7.84386 6.5999C7.95605 6.86934 8.22522 7.53154 8.25887 7.59883C8.29251 7.66626 8.3149 7.74481 8.27013 7.83463C8.22522 7.92444 8.07608 8.11821 7.93367 8.29482C7.87393 8.36884 7.79607 8.43475 7.87462 8.56947C7.95303 8.70406 8.2233 9.14474 8.62334 9.50153C9.1375 9.95993 9.57118 10.1019 9.70576 10.1694C9.84021 10.2366 9.91876 10.2254 9.99731 10.1357C10.0757 10.0459 10.3338 9.74281 10.4234 9.60809C10.5131 9.47337 10.6029 9.4959 10.7263 9.5408C10.8497 9.58557 11.5114 9.91118 11.646 9.97847C11.7805 10.0459 11.8702 10.0795 11.9039 10.1357C11.9376 10.1919 11.9376 10.4612 11.8254 10.7755Z" fill="#C3C3C3"/>
</g>
<defs>
<clipPath id="clip0_222_7682">
<rect width="18" height="18" fill="white"/>
</clipPath>
</defs>
</svg>
