<svg width="36" height="37" viewBox="0 0 36 37" fill="none" xmlns="http://www.w3.org/2000/svg">
<path d="M16.3334 20.8336L20.6584 18.3336L16.3334 15.8336V20.8336ZM25.9667 14.3086C26.0751 14.7002 26.1501 15.2252 26.2001 15.8919C26.2584 16.5586 26.2834 17.1336 26.2834 17.6336L26.3334 18.3336C26.3334 20.1586 26.2001 21.5002 25.9667 22.3586C25.7584 23.1086 25.2751 23.5919 24.5251 23.8002C24.1334 23.9086 23.4167 23.9836 22.3167 24.0336C21.2334 24.0919 20.2417 24.1169 19.3251 24.1169L18.0001 24.1669C14.5084 24.1669 12.3334 24.0336 11.4751 23.8002C10.7251 23.5919 10.2417 23.1086 10.0334 22.3586C9.92508 21.9669 9.85008 21.4419 9.80008 20.7752C9.74175 20.1086 9.71675 19.5336 9.71675 19.0336L9.66675 18.3336C9.66675 16.5086 9.80008 15.1669 10.0334 14.3086C10.2417 13.5586 10.7251 13.0752 11.4751 12.8669C11.8667 12.7586 12.5834 12.6836 13.6834 12.6336C14.7667 12.5752 15.7584 12.5502 16.6751 12.5502L18.0001 12.5002C21.4917 12.5002 23.6667 12.6336 24.5251 12.8669C25.2751 13.0752 25.7584 13.5586 25.9667 14.3086Z" fill="white"/>
<rect x="0.5" y="0.833496" width="35" height="35" rx="6.5" stroke="#004E41"/>
</svg>
