<svg width="18" height="13" viewBox="0 0 18 13" fill="none" xmlns="http://www.w3.org/2000/svg">
<path d="M7.33464 9.07958L11.6596 6.57958L7.33464 4.07958V9.07958ZM16.968 2.55458C17.0763 2.94625 17.1513 3.47125 17.2013 4.13791C17.2596 4.80458 17.2846 5.37958 17.2846 5.87958L17.3346 6.57958C17.3346 8.40458 17.2013 9.74625 16.968 10.6046C16.7596 11.3546 16.2763 11.8379 15.5263 12.0462C15.1346 12.1546 14.418 12.2296 13.318 12.2796C12.2346 12.3379 11.243 12.3629 10.3263 12.3629L9.0013 12.4129C5.50964 12.4129 3.33464 12.2796 2.4763 12.0462C1.7263 11.8379 1.24297 11.3546 1.03464 10.6046C0.926302 10.2129 0.851302 9.68791 0.801302 9.02125C0.742969 8.35458 0.717969 7.77958 0.717969 7.27958L0.667969 6.57958C0.667969 4.75458 0.801302 3.41291 1.03464 2.55458C1.24297 1.80458 1.7263 1.32125 2.4763 1.11291C2.86797 1.00458 3.58464 0.92958 4.68464 0.87958C5.76797 0.821246 6.75963 0.796246 7.6763 0.796246L9.0013 0.746246C12.493 0.746246 14.668 0.87958 15.5263 1.11291C16.2763 1.32125 16.7596 1.80458 16.968 2.55458Z" fill="white"/>
</svg>
